<?xml version="1.0" encoding="utf-8"?>
<!-- Generator: Adobe Illustrator 17.0.0, SVG Export Plug-In . SVG Version: 6.00 Build 0)  -->
<!DOCTYPE svg PUBLIC "-//W3C//DTD SVG 1.1//EN" "http://www.w3.org/Graphics/SVG/1.1/DTD/svg11.dtd">
<svg version="1.1" id="Layer_1" xmlns="http://www.w3.org/2000/svg" xmlns:xlink="http://www.w3.org/1999/xlink" x="0px" y="0px"
	 width="612px" height="792px" viewBox="0 0 612 792" enable-background="new 0 0 612 792" xml:space="preserve">
<rect x="250.292" y="352.5" fill="#41FF3F" width="120.979" height="95.333"/>
<g>
	<path d="M229.5,462.584c0,16.036,13.005,29.041,29.041,29.041h104.48c16.036,0,29.041-13.005,29.041-29.041V391.63l57.375-19.364
		v-33.641h-57.375V289.99l57.375-19.364V243h-57.375v-40.143l57.375-19.364v-26.555h-57.375v-28.334
		c0-16.036-13.005-29.041-29.041-29.041h-104.48c-16.036,0-29.041,13.005-29.041,29.041v28.334h-57.375v26.565l57.375,19.364V243
		h-57.375v27.626L229.5,289.99v48.635h-57.375v33.641L229.5,391.63V462.584z M313.258,158.085c19.383,0,35.094,15.711,35.094,35.094
		s-15.711,35.094-35.094,35.094c-19.383,0-35.094-15.711-35.094-35.094S293.875,158.085,313.258,158.085z M313.258,259.734
		c19.383,0,35.094,15.711,35.094,35.094c0,19.383-15.711,35.094-35.094,35.094c-19.383,0-35.094-15.711-35.094-35.094
		C278.164,275.446,293.875,259.734,313.258,259.734z M313.258,361.384c19.383,0,35.094,15.711,35.094,35.094
		s-15.711,35.094-35.094,35.094c-19.383,0-35.094-15.711-35.094-35.094S293.875,361.384,313.258,361.384z"/>
	<rect x="258.188" y="520.313" width="105.188" height="124.313"/>
</g>
</svg>
