<?xml version="1.0" encoding="utf-8"?>
<!-- Generator: Adobe Illustrator 17.0.0, SVG Export Plug-In . SVG Version: 6.00 Build 0)  -->
<!DOCTYPE svg PUBLIC "-//W3C//DTD SVG 1.1//EN" "http://www.w3.org/Graphics/SVG/1.1/DTD/svg11.dtd">
<svg version="1.1" id="Ebene_1" xmlns="http://www.w3.org/2000/svg" xmlns:xlink="http://www.w3.org/1999/xlink" x="0px" y="0px"
	 width="296.339px" height="48.417px" viewBox="-73.16 0 296.339 48.417" enable-background="new -73.16 0 296.339 48.417"
	 xml:space="preserve">
<g id="Ebene_x0020_1">
	<path fill="#FECC00" d="M89.204,35.765"/>
	<path fill="#6F6F6E" d="M71.492,31.684c-0.538-1.615-1.927-2.891-3.741-2.976h-0.595h-5.725h-0.567
		c-1.87,0.085-3.316,1.36-3.769,2.976h-2.749c-0.822,0.085-1.049-0.822-0.992-1.587v-2.579H85.69V15.303h8.105l1.757,6.518v8.87
		c0,0.51-0.368,1.077-0.992,0.992h-0.765c-0.623-1.615-2.012-2.891-3.769-2.976c-1.899,0.085-3.372,1.36-3.939,2.976L71.492,31.684
		L71.492,31.684z M51.767,26.158V11.166h32.96v14.992H51.767z M60.864,29.7c1.615-0.028,2.919,1.417,2.947,2.947
		c-0.028,1.729-1.332,3.174-2.947,3.174c-1.7,0-3.032-1.445-2.976-3.174C57.832,31.117,59.164,29.672,60.864,29.7z M67.751,29.7
		c1.615-0.028,2.947,1.417,2.976,2.947c-0.028,1.729-1.36,3.174-2.976,3.174c-1.7,0-3.032-1.445-2.947-3.174
		C64.718,31.117,66.05,29.672,67.751,29.7z M89.828,29.7c1.785-0.028,3.089,1.417,3.174,2.947c-0.085,1.729-1.389,3.174-3.174,3.174
		c-1.559,0-2.891-1.445-2.947-3.174C86.937,31.117,88.269,29.672,89.828,29.7z M87.475,21.992h6.121l-1.19-5.101h-4.931V21.992z
		 M60.864,31.287c-0.822,0.057-1.417,0.709-1.389,1.36c-0.028,0.85,0.595,1.502,1.389,1.587c0.709-0.085,1.332-0.737,1.36-1.587
		C62.196,31.996,61.601,31.344,60.864,31.287z M67.751,31.287c-0.822,0.057-1.417,0.709-1.389,1.36
		c-0.028,0.85,0.595,1.502,1.389,1.587c0.709-0.085,1.304-0.737,1.389-1.587C69.054,31.996,68.459,31.344,67.751,31.287z
		 M89.828,31.287c-0.652,0.057-1.247,0.709-1.162,1.36c-0.085,0.85,0.51,1.502,1.162,1.587c0.879-0.085,1.474-0.737,1.389-1.587
		C91.301,31.996,90.706,31.344,89.828,31.287z"/>
	<path fill="#6F6F6E" d="M120.435,31.826h-7.028c-0.907,0.085-0.964-1.162-1.02-1.842v-16.92c0.057-1.162,0.822-2.097,2.069-2.069
		h42.51c1.02-0.028,1.417,1.162,1.644,2.069h-3.287l1.644,8.672h1.644v8.87c0.028,0.822-0.68,1.304-1.445,1.219h-1.247
		c0.028,0,0.028-0.085,0-0.198c0.028-2.579-2.154-4.818-4.733-4.733c-2.664-0.085-4.875,2.126-4.96,4.733
		c0.085,0.113,0.085,0.198,0,0.198H129.93c0.057,0,0.057-0.085,0-0.198c0.057-2.579-2.154-4.818-4.761-4.733
		c-2.607-0.085-4.846,2.126-4.931,4.733C120.322,31.741,120.35,31.826,120.435,31.826z M125.168,27.716
		c2.154,0,3.883,1.87,3.939,3.911c-0.057,2.239-1.757,4.138-3.939,4.138s-3.883-1.899-3.911-4.138
		C121.285,29.587,123.014,27.716,125.168,27.716z M151.184,27.716c2.126,0,3.826,1.87,3.911,3.911
		c-0.085,2.239-1.785,4.138-3.911,4.138c-2.211,0-3.939-1.899-3.911-4.138C147.245,29.587,148.974,27.716,151.184,27.716z
		 M114.455,21.737h8.445v-8.672h-8.445V21.737z M124.771,21.737h8.672v-8.672h-8.672C124.771,13.065,124.771,21.737,124.771,21.737z
		 M135.285,21.737h8.672v-8.672h-8.672V21.737z M145.601,21.737h9.721l-1.672-8.672h-8.049V21.737z M125.168,29.558
		c-1.105,0.113-2.012,1.049-2.04,2.069c0.028,1.162,0.935,2.126,2.04,2.069c1.105,0.057,1.984-0.907,2.069-2.069
		C127.152,30.607,126.273,29.672,125.168,29.558z M151.184,29.558c-1.162,0.113-2.069,1.049-2.069,2.069
		c0,1.162,0.907,2.126,2.069,2.069c1.049,0.057,1.927-0.907,1.87-2.069C153.111,30.607,152.233,29.672,151.184,29.558z"/>
	<path fill="#6F6F6E" d="M-11.885,31.316c-1.587-0.227-2.352-1.417-2.437-3.089v-5.753c0.085-1.02,0.794-1.672,1.559-2.437
		l6.433-6.433c0.879-0.879,2.409-0.765,3.543-0.68h18.393c1.559-0.085,2.352,0.51,3.316,1.559l6.433,6.66h7.765
		c1.927,0.028,2.636,1.757,2.664,3.543v4.648c-0.028,1.757-1.332,2.012-2.664,1.984h-0.453c-0.113-2.862-2.069-5.413-5.101-5.3
		c-3.032-0.113-5.243,2.409-5.3,5.3H-1.456c-0.028-2.891-2.267-5.413-5.101-5.3C-9.646,25.903-11.857,28.425-11.885,31.316z
		 M-6.557,26.894c2.211,0,4.053,2.04,3.968,4.223c0.085,2.381-1.757,4.421-3.968,4.421c-2.437,0-4.308-2.012-4.223-4.421
		C-10.865,28.935-8.995,26.894-6.557,26.894z M27.564,26.894c2.296,0,4.138,2.04,4.223,4.223c-0.085,2.381-1.927,4.421-4.223,4.421
		c-2.381,0-4.223-2.012-4.194-4.421C23.342,28.935,25.184,26.894,27.564,26.894z M3.192,21.141V15.36h-7.538l-4.875,4.676
		c-0.113,0.113-0.283,0.34-0.227,0.652c-0.057,0.227,0.17,0.482,0.453,0.453C-8.995,21.141,3.192,21.141,3.192,21.141z
		 M6.082,21.141h14.624c0.425,0.028,1.02-0.057,1.105-0.453c-0.085-0.312-0.227-0.567-0.453-0.652l-3.543-3.996
		c-0.482-0.538-1.02-0.652-1.757-0.68H6.082V21.141z M-6.557,28.878c-1.304,0.113-2.267,1.134-2.211,2.239
		c-0.057,1.247,0.907,2.267,2.211,2.211c1.077,0.057,2.012-0.964,1.984-2.211C-4.545,30.012-5.48,28.992-6.557,28.878z
		 M27.564,28.878c-1.247,0.113-2.182,1.134-2.211,2.239c0.028,1.247,0.964,2.267,2.211,2.211c1.134,0.057,2.069-0.964,2.012-2.211
		C29.633,30.012,28.698,28.992,27.564,28.878z"/>
	<path fill="#6F6F6E" d="M-43.343,16.409v-1.757h2.947c0.907,0.028,1.53,0.935,1.757,1.615l0.142,0.283l-1.757,0.538l-0.283-0.538
		c-0.085-0.142-0.34-0.198-0.538-0.142h-2.268V16.409z"/>
	<path fill="#6F6F6E" d="M-34.614,16.947v3.769c-1.077-0.085-2.381-0.737-2.409-1.899c0.028-1.162,1.19-1.87,2.154-1.87
		C-34.756,16.947-34.699,16.975-34.614,16.947z"/>
	<path fill="#6F6F6E" d="M-51.845,23.947l-2.012,4.704c0.057,0.198,0.142,0.482,0.142,0.822c0,0.879-0.737,1.672-1.615,1.729
		c-0.964-0.057-1.729-0.85-1.757-1.729c0.028-0.879,0.595-1.53,1.36-1.757l2.154-5.243h-6.207l1.757-3.769h14.397
		c1.275,0.028,2.211-0.255,3.089-1.077l1.615,4.024l-2.947,7.68c-0.595,1.304-1.87,1.984-3.231,2.012h-4.308
		c0.17-0.623,0.283-1.247,0.255-1.87c0.028-1.332-0.397-2.636-1.077-3.769h7.68l1.219-3.231h-4.846l-1.077,2.806h-3.372
		C-50.938,24.797-51.42,24.372-51.845,23.947z"/>
	<path fill="#6F6F6E" d="M-52.497,26.894l0.794-1.87c1.247,1.162,1.955,2.721,1.899,4.449c0.057,3.117-2.494,5.866-5.668,5.923
		c-3.231-0.057-5.753-2.806-5.781-5.923c0.028-3.202,2.579-5.951,5.781-5.923c0.255-0.028,0.538-0.028,0.822,0l-0.822,1.87
		c-2.154,0-3.911,1.814-3.911,4.053c0,2.097,1.729,3.968,3.911,4.024c2.154-0.057,3.883-1.899,3.911-4.024
		C-51.59,28.51-51.93,27.631-52.497,26.894z"/>
	<path fill="#6F6F6E" d="M-37.306,26.639c-0.68,0.737-1.077,1.729-1.077,2.834c0,2.097,1.7,3.968,3.911,4.024
		c2.126-0.057,3.854-1.899,3.911-4.024c-0.057-2.154-1.672-3.883-3.769-4.053l-0.68-1.87c0.142-0.028,0.312-0.028,0.538,0
		c3.174-0.028,5.696,2.692,5.668,5.923c0.028,3.146-2.522,5.866-5.668,5.923c-3.259-0.057-5.781-2.834-5.781-5.923
		c0-1.842,0.85-3.599,2.296-4.733L-37.306,26.639z"/>
	<path fill="#6F6F6E" d="M-34.076,27.716c0.737,0.283,1.247,0.935,1.219,1.757c0.028,0.879-0.737,1.672-1.615,1.729
		c-0.964-0.057-1.7-0.85-1.757-1.729c0.057-0.397,0.17-0.709,0.425-1.077l-4.308-10.656l1.87-0.794L-34.076,27.716z"/>
</g>
<g>
	<polygon fill="#6F6F6E" points="172.094,15.884 172.619,16.849 173.669,16.849 172.619,15.884 	"/>
	<polygon fill="#6F6F6E" points="170.714,15.884 170.572,16.849 171.622,16.849 171.458,15.884 	"/>
	<polygon fill="#6F6F6E" points="168.525,16.849 169.575,16.849 170.1,15.884 169.575,15.884 	"/>
	<path fill="#6F6F6E" d="M175.244,17.198l-3.738-6.501c-0.111-0.193-0.256-0.299-0.408-0.299c-0.155,0-0.303,0.109-0.417,0.307
		l-3.738,6.49c-0.114,0.197-0.133,0.391-0.052,0.531c0.079,0.137,0.244,0.213,0.464,0.213h7.476c0.221,0,0.386-0.075,0.465-0.212
		C175.376,17.587,175.357,17.395,175.244,17.198z M174.272,17.367h-6.361c-0.225,0-0.317-0.159-0.205-0.354l3.184-5.528
		c0.112-0.195,0.296-0.195,0.408,0l3.178,5.528C174.589,17.208,174.497,17.367,174.272,17.367z"/>
</g>
<circle fill="#6F6F6E" cx="170.844" cy="13.045" r="0.329"/>
<path fill="#6F6F6E" d="M172.179,16.583c-0.021,0.015-0.045,0.022-0.068,0.022c-0.037,0-0.074-0.017-0.097-0.05l-0.591-0.836
	l-0.1-0.517l-0.344,0.07l-0.385,0.424l-0.14,0.779c-0.01,0.057-0.06,0.098-0.117,0.098c-0.007,0-0.014-0.001-0.021-0.002
	c-0.064-0.012-0.107-0.073-0.096-0.138l0.152-0.846l0.563-0.62l-0.172-0.85l-0.128,0.312l-0.584,0.378
	c-0.02,0.013-0.042,0.019-0.064,0.019c-0.039,0-0.077-0.019-0.1-0.054c-0.036-0.055-0.02-0.128,0.035-0.164l0.521-0.337l0.274-0.669
	c0.012-0.036,0.034-0.075,0.121-0.092l0.191-0.039c0.079-0.016,0.123,0.005,0.158,0.038l0.777,0.648l0.122,0.66
	c0.012,0.064-0.031,0.126-0.095,0.138c-0.007,0.001-0.014,0.002-0.022,0.002c-0.056,0-0.106-0.04-0.116-0.097l-0.106-0.575
	l-0.424-0.349l0.323,1.689l0.561,0.794C172.246,16.471,172.233,16.545,172.179,16.583z"/>
<path fill="#6F6F6E" d="M171.173,20.027"/>
<polygon fill="#6F6F6E" points="171.531,34.264 170.815,34.262 170.815,17.861 171.531,17.863 "/>
<g>
	<polygon fill="#6F6F6E" points="207.734,33.685 194.371,33.685 191.672,32.283 205.035,32.283 	"/>
	<path fill="#6F6F6E" d="M193.043,31.433c0.051,0.062,0.108,0.118,0.167,0.171h-2.841l-2.697-1.403h4.87
		C192.589,30.675,192.757,31.094,193.043,31.433z"/>
	<path fill="#6F6F6E" d="M196.512,30.202h4.522l2.698,1.404h-7.945C196.152,31.285,196.428,30.814,196.512,30.202z"/>
	<path fill="#6F6F6E" d="M196.549,29.38c0.008-0.457,0-0.926-0.02-1.402h0.222l2.699,1.402H196.549z"/>
	<path fill="#6F6F6E" d="M192.539,29.38h-6.452l-2.697-1.402h9.124C192.539,28.454,192.547,28.925,192.539,29.38z"/>
	<path fill="#6F6F6E" d="M188.507,25.898c0.404,0.502,0.989,1.083,1.705,1.401h-8.126l-2.698-1.401
		C179.388,25.898,188.507,25.898,188.507,25.898z"/>
	<path fill="#6F6F6E" d="M192.471,27.3h-0.169c0.053-0.025,0.109-0.048,0.164-0.08C192.467,27.246,192.469,27.273,192.471,27.3z"/>
	<path fill="#6F6F6E" d="M191.281,27.54c-0.381,0-0.739-0.092-1.069-0.241h2.09C191.977,27.456,191.637,27.54,191.281,27.54z"/>
	<path fill="#6F6F6E" d="M202.144,17.105c-1.41,1.077-2.933,1.895-4.557,2.449c-0.012,0.031-0.024,0.063-0.039,0.095
		c-0.782,1.693-1.483,3.407-2.598,4.847c0.378,1.988,0.595,4.085,0.516,6.104c-0.053,1.325-1.875,1.331-1.822,0
		c0.066-1.678-0.081-3.396-0.363-5.058c-0.308,0.416-0.642,0.799-1.028,1.116c-1.163,0.957-2.424-0.152-3.147-1.176
		c-0.726-1.028,0.554-2.5,1.289-1.46c0.153,0.217,0.522,0.882,0.798,0.922c0.188,0.029,0.446-0.401,0.545-0.526
		c0.229-0.289,0.442-0.597,0.647-0.911c0.03-0.304,0.146-0.611,0.383-0.889c0.787-0.931,1.325-2.068,1.835-3.217
		c-1.267-0.059-2.525-0.208-3.769-0.521c-1.147-0.289-0.661-2.28,0.485-1.992c1.509,0.38,3.035,0.471,4.577,0.479
		c0.379-0.138,0.804-0.038,1.147,0.216c1.5-0.509,2.878-1.264,4.182-2.261C202.202,14.575,203.113,16.365,202.144,17.105z"/>
	<ellipse fill="#6F6F6E" cx="196.947" cy="15.009" rx="1.657" ry="1.878"/>
</g>
</svg>
