<?xml version="1.0" encoding="UTF-8"?>
<!DOCTYPE svg PUBLIC "-//W3C//DTD SVG 1.1//EN" "http://www.w3.org/Graphics/SVG/1.1/DTD/svg11.dtd">
<!-- Creator: CorelDRAW X6 -->
<svg xmlns="http://www.w3.org/2000/svg" xml:space="preserve" width="78.7326mm" height="17.0803mm" version="1.1" style="shape-rendering:geometricPrecision; text-rendering:geometricPrecision; image-rendering:optimizeQuality; fill-rule:evenodd; clip-rule:evenodd"
viewBox="0 0 7875 1708"
 xmlns:xlink="http://www.w3.org/1999/xlink">
 <defs>
  <style type="text/css">
   <![CDATA[
    .fil1 {fill:#6F6F6E}
    .fil0 {fill:#FECC00}
   ]]>
  </style>
 </defs>
 <g id="Ebene_x0020_1">
  <metadata id="CorelCorpID_0Corel-Layer"/>
  <path class="fil0" d="M753 1307l-134 -22c5,-36 12,-64 22,-85 9,-21 23,-39 41,-54 13,-11 30,-19 53,-25 22,-6 47,-9 73,-9 42,0 75,3 101,10 25,8 46,23 63,46 12,16 22,39 28,68 7,29 11,57 11,83l0 250c0,26 1,47 3,62 2,15 7,34 14,58l-131 0c-5,-15 -9,-26 -10,-33 -2,-8 -4,-20 -5,-36 -18,27 -37,46 -55,58 -25,16 -53,24 -86,24 -44,0 -77,-16 -99,-47 -23,-31 -34,-70 -34,-115 0,-43 8,-79 24,-106 17,-28 47,-49 90,-62 53,-16 87,-28 102,-34 16,-7 33,-15 50,-26 0,-27 -4,-45 -11,-56 -7,-11 -19,-16 -37,-16 -23,0 -40,6 -52,17 -9,9 -16,26 -21,50zm121 114c-19,10 -39,20 -60,28 -29,12 -47,23 -54,35 -8,11 -12,25 -12,40 0,17 4,30 12,41 7,11 19,16 33,16 16,0 31,-6 44,-17 13,-12 23,-26 28,-43 6,-17 9,-39 9,-66l0 -34z"/>
  <path class="fil0" d="M1095 910l140 0 0 287c19,-31 38,-53 56,-66 19,-13 41,-19 67,-19 38,0 68,17 90,53 22,36 33,91 33,165l0 359 -141 0 0 -311c0,-35 -4,-60 -13,-75 -8,-15 -20,-22 -35,-22 -17,0 -31,10 -42,30 -10,20 -15,55 -15,107l0 271 -140 0 0 -779z"/>
  <path class="fil0" d="M1566 1124l130 0 0 93c13,-40 26,-68 39,-83 14,-15 30,-22 50,-22 21,0 43,9 68,29l-44 155c-16,-11 -29,-16 -39,-16 -18,0 -32,11 -42,35 -15,33 -22,94 -22,185l0 189 -140 0 0 -565z"/>
  <path class="fil0" d="M1869 1533l139 -21c6,26 14,44 24,55 10,11 24,16 41,16 19,0 34,-6 44,-18 8,-9 12,-21 12,-35 0,-15 -5,-27 -16,-36 -7,-6 -27,-13 -60,-22 -49,-13 -82,-25 -101,-37 -19,-11 -35,-30 -48,-56 -13,-27 -19,-57 -19,-91 0,-37 6,-69 21,-96 13,-27 33,-47 57,-60 25,-14 58,-20 99,-20 43,0 76,5 96,15 21,10 38,26 52,48 14,21 26,50 35,87l-133 21c-3,-18 -9,-32 -17,-40 -11,-12 -24,-17 -40,-17 -16,0 -27,4 -35,13 -7,9 -10,19 -10,31 0,14 4,25 13,32 10,7 29,14 60,19 47,8 81,19 104,34 23,14 40,35 52,62 12,27 18,57 18,89 0,33 -6,64 -19,95 -13,31 -33,56 -60,74 -28,18 -65,27 -112,27 -67,0 -114,-15 -142,-44 -29,-29 -47,-71 -55,-125z"/>
  <path class="fil0" d="M2596 1468l133 24c-8,42 -20,79 -36,111 -17,31 -38,56 -64,73 -26,17 -59,26 -100,26 -38,0 -70,-6 -96,-17 -26,-11 -48,-29 -67,-54 -18,-25 -33,-54 -43,-88 -11,-34 -16,-78 -16,-134 0,-58 6,-106 19,-145 9,-28 22,-54 39,-76 16,-23 32,-40 50,-50 27,-18 62,-26 105,-26 59,0 105,16 136,49 31,33 53,81 66,145l-132 27c-4,-24 -12,-43 -23,-55 -10,-12 -25,-18 -43,-18 -24,0 -42,13 -56,38 -15,26 -22,65 -22,117 0,47 7,82 21,106 14,24 33,36 54,36 19,0 34,-7 47,-22 12,-14 22,-37 28,-67z"/>
  <path class="fil0" d="M2781 910l140 0 0 287c19,-31 38,-53 56,-66 19,-13 41,-19 67,-19 38,0 68,17 90,53 22,36 33,91 33,165l0 359 -141 0 0 -311c0,-35 -4,-60 -12,-75 -9,-15 -21,-22 -36,-22 -17,0 -31,10 -41,30 -11,20 -16,55 -16,107l0 271 -140 0 0 -779z"/>
  <path class="fil0" d="M3635 1689l-131 0 0 -92c-19,38 -39,65 -59,81 -19,16 -44,24 -73,24 -38,0 -68,-18 -90,-54 -22,-35 -33,-90 -33,-164l0 -360 141 0 0 311c0,35 4,60 12,75 9,15 21,23 36,23 17,0 30,-10 41,-30 11,-20 16,-56 16,-107l0 -272 140 0 0 565z"/>
  <polygon class="fil0" points="3725,910 3865,910 3865,1689 3725,1689 "/>
  <path class="fil0" d="M4359 1460l-280 0c2,35 8,61 18,78 13,24 31,37 53,37 14,0 27,-6 39,-16 7,-7 16,-19 24,-36l138 20c-21,56 -46,97 -76,122 -30,24 -72,37 -128,37 -49,0 -87,-11 -114,-32 -28,-21 -51,-55 -69,-101 -18,-45 -27,-99 -27,-161 0,-89 18,-160 54,-215 37,-54 87,-81 152,-81 52,0 93,12 123,36 31,25 54,60 69,107 16,46 24,106 24,181l0 24zm-142 -103c-3,-42 -10,-72 -22,-90 -12,-18 -27,-27 -47,-27 -22,0 -39,13 -53,40 -8,18 -14,43 -16,77l138 0z"/>
  <path class="fil0" d="M5383 1319c78,-112 132,-164 151,-164 5,0 35,9 61,29 18,13 24,20 24,49 0,56 -14,164 -53,320 22,-1 34,-9 43,-9 8,0 11,3 11,7 0,5 -9,47 -35,105 -14,31 -43,47 -80,47 -44,0 -79,-37 -79,-105 0,-49 14,-141 50,-273 -55,63 -99,143 -129,239 -28,90 -33,139 -45,139 -15,0 -97,-42 -97,-87 0,-8 16,-216 92,-549 29,-129 48,-193 62,-193 20,0 91,54 91,91 0,15 -14,139 -67,354z"/>
  <path class="fil0" d="M5841 1543c22,-2 35,-8 42,-8 10,0 12,3 12,12 0,6 -8,54 -31,111 -12,33 -42,50 -80,50 -52,0 -85,-42 -85,-120 0,-52 21,-188 80,-358 15,-44 26,-67 37,-67 9,0 28,13 58,38 21,17 24,22 24,45 0,18 -15,119 -57,297zm28 -447c-35,0 -59,-29 -59,-71 0,-47 31,-82 69,-82 30,0 57,29 57,70 0,50 -31,83 -67,83z"/>
  <path class="fil0" d="M6337 1371c95,-135 154,-204 189,-204 28,0 85,25 85,72 0,52 -22,149 -60,295l9 0c15,0 26,-5 33,-5 9,0 11,3 11,13 0,9 -11,42 -35,88 -26,46 -47,71 -67,71 -27,0 -96,-36 -96,-96 0,-37 18,-139 75,-285 -77,75 -122,159 -160,255 -35,90 -32,129 -48,129 -8,0 -28,-11 -61,-36 -19,-14 -31,-27 -31,-52 0,-38 21,-150 86,-315 -76,82 -130,175 -163,277 -26,84 -22,124 -35,124 -24,0 -104,-44 -104,-86 0,-7 10,-116 58,-308 25,-98 36,-140 52,-140 29,0 91,25 91,57 0,19 -12,60 -31,124 76,-123 133,-184 158,-184 27,0 82,28 82,67 0,33 -18,76 -38,139z"/>
  <path class="fil0" d="M6789 1558c-47,-110 -75,-188 -75,-239 0,-92 46,-154 112,-154 38,0 82,17 104,36 14,12 19,38 19,82 0,50 -3,72 -16,72 -20,0 -35,-36 -82,-51 42,101 70,181 70,252 0,94 -51,148 -136,148 -48,0 -74,-7 -90,-29 -19,-26 -34,-85 -34,-130 0,-12 4,-20 12,-20 16,0 47,34 102,34 4,0 9,-1 14,-1z"/>
  <path class="fil0" d="M7134 1558c16,3 30,4 43,4 73,0 122,-52 138,-52 4,0 7,6 7,17 0,23 -18,89 -38,117 -26,35 -87,63 -148,63 -87,0 -140,-63 -140,-170 0,-82 36,-193 100,-281 45,-64 94,-96 135,-96 54,0 115,52 115,127 0,110 -78,214 -212,223 -1,9 -2,16 -2,23 0,6 1,15 2,25zm7 -96c54,-23 92,-107 92,-159l0 -23c-40,26 -74,89 -92,182z"/>
  <path class="fil0" d="M7694 1323c-80,78 -135,168 -169,266 -22,67 -23,112 -37,112 -5,0 -26,-12 -62,-39 -22,-18 -34,-34 -34,-52 0,-17 9,-127 56,-298 27,-98 42,-143 58,-143 23,0 95,33 95,76 0,18 -7,48 -18,92 80,-112 132,-172 170,-172 7,0 28,7 55,24 23,15 26,25 26,49 0,48 -18,150 -68,298l4 0c22,0 37,-7 47,-7 8,0 11,3 11,11 0,18 -18,48 -45,93 -26,45 -41,68 -55,68 -5,0 -42,-11 -81,-38 -20,-14 -31,-36 -31,-69 0,-42 21,-138 78,-271z"/>
  <path class="fil0" d="M4942 1542c7,-187 36,-344 80,-464 -116,-3 -176,-13 -176,-33 0,-19 14,-60 33,-126 4,-17 13,-26 19,-26 9,0 68,27 180,27 94,0 150,-18 168,-18 9,0 10,3 10,11 0,31 -18,97 -25,112 -10,17 -54,34 -131,44 41,24 54,24 54,53 0,21 -4,69 -17,141 -21,116 -40,208 -64,279 -40,116 -107,166 -144,166 -27,0 -50,-20 -81,-58 -31,-38 -46,-66 -46,-85 0,-19 20,-39 57,-75 22,-20 36,-33 47,-33 18,0 1,44 36,85z"/>
  <path class="fil0" d="M5617 730l540 0c12,24 32,40 61,40l239 0 4 0c20,80 89,138 172,139 82,-1 151,-60 172,-139l63 0 508 0 2 0c20,79 89,138 173,139 80,-1 149,-59 171,-139l38 0c2,0 5,0 8,0 32,0 60,-14 74,-40l33 0 0 256 -1900 0c-12,-50 -54,-80 -94,-80 -45,0 -87,31 -103,80l-286 0c0,-4 0,-8 1,-11 0,-3 0,-5 0,-7 0,-22 -18,-49 -41,-72 48,-24 82,-73 86,-132l13 0c0,0 4,1 7,1 26,0 47,-14 59,-35zm-232 33c0,0 0,0 0,-1l0 -4 0 -3c0,-2 2,-4 4,-4 3,0 6,1 6,4l0 3 0 4c0,1 0,1 0,1 0,5 -3,8 -7,10 -2,-2 -3,-6 -3,-10zm-75 123c-9,23 -20,56 -32,100l0 0c6,-26 12,-55 12,-74 0,-32 -2,-44 -44,-44 -6,0 -17,2 -32,5 -27,4 -73,13 -136,13 -64,0 -110,-10 -138,-17 -8,-2 -15,-4 -20,-5 -7,-2 -12,-4 -15,-4 -3,-1 -5,-1 -7,-1 -3,0 -7,1 -12,2 -14,4 -31,16 -40,48 -4,16 -8,30 -12,43 0,1 -1,3 -1,5 -3,10 -6,20 -8,29l-61 0 -462 0 0 0 -395 0 0 -73 0 -40 -40 0 -140 0 -40 0 0 40 0 73 -724 0 0 -73 0 -40 -40 0 -140 0 -40 0 0 40 0 73 -1466 0 0 -73 0 -40 -40 0 -140 0 0 0c59,-28 106,-80 128,-143l507 0c17,11 36,18 59,22l11 1c20,85 92,148 183,148 84,0 155,-64 175,-149l5 0 837 0 4 0c21,85 94,149 183,149 85,0 159,-64 182,-149l14 0c37,0 70,-5 94,-22l592 0c12,22 33,34 59,34 3,0 6,0 6,0l83 0c3,82 65,146 145,146 50,0 95,-27 121,-69 25,42 70,69 122,69 75,0 140,-63 145,-146l490 0c4,52 31,96 68,122zm-711 -127c0,-4 3,-7 8,-8 4,1 7,5 8,9 -1,5 -4,10 -8,13 -5,-3 -8,-8 -8,-14zm-227 0c0,5 -3,11 -9,14 -5,-3 -8,-8 -8,-14 0,-4 4,-7 8,-8 5,2 9,5 9,8zm-1159 -29c-6,8 -14,12 -24,12 -11,0 -21,-4 -28,-12l52 0zm-1206 0c-5,8 -13,12 -22,12 -12,0 -22,-4 -29,-12l51 0zm-954 0c-16,11 -34,18 -53,19 -20,-1 -38,-8 -54,-19l1 0c15,10 33,17 53,18 19,-1 36,-8 51,-18l2 0zm4 157l0 26 0 73 -762 0 0 116 284 -2 0 195 -284 2 0 403 -295 0 0 -970 30 0c35,93 123,164 229,165 96,-1 178,-60 216,-142l151 0c29,-1 58,-9 83,-23l62 0c34,93 122,164 229,165 20,0 39,-3 57,-8zm-847 -157c16,10 34,17 54,18 4,0 8,-1 11,-1 -5,1 -10,1 -16,2 -20,-1 -38,-8 -53,-19l4 0zm7309 0l57 0c-1,14 -11,26 -25,26 -16,0 -28,-11 -32,-26z"/>
  <path class="fil1" d="M4734 730c-19,-57 -68,-102 -132,-105l-21 0 -202 0 -20 0c-66,3 -117,48 -133,105l-97 0c-29,3 -37,-29 -35,-56l0 -91 1141 0 0 -431 286 0 62 230 0 313c0,18 -13,38 -35,35l-27 0c-22,-57 -71,-102 -133,-105 -67,3 -119,48 -139,105l-515 0zm-696 -195l0 -529 1163 0 0 529 -1163 0zm321 125c57,-1 103,50 104,104 -1,61 -47,112 -104,112 -60,0 -107,-51 -105,-112 -2,-54 45,-105 105,-104zm243 0c57,-1 104,50 105,104 -1,61 -48,112 -105,112 -60,0 -107,-51 -104,-112 -3,-54 44,-105 104,-104zm779 0c63,-1 109,50 112,104 -3,61 -49,112 -112,112 -55,0 -102,-51 -104,-112 2,-54 49,-105 104,-104zm-83 -272l216 0 -42 -180 -174 0 0 180zm-939 328c-29,2 -50,25 -49,48 -1,30 21,53 49,56 25,-3 47,-26 48,-56 -1,-23 -22,-46 -48,-48zm243 0c-29,2 -50,25 -49,48 -1,30 21,53 49,56 25,-3 46,-26 49,-56 -3,-23 -24,-46 -49,-48zm779 0c-23,2 -44,25 -41,48 -3,30 18,53 41,56 31,-3 52,-26 49,-56 3,-23 -18,-46 -49,-48z"/>
  <path class="fil1" d="M6461 735l-248 0c-32,3 -34,-41 -36,-65l0 -597c2,-41 29,-74 73,-73l1500 0c36,-1 50,41 58,73l-116 0 58 306 58 0 0 313c1,29 -24,46 -51,43l-44 0c1,0 1,-3 0,-7 1,-91 -76,-170 -167,-167 -94,-3 -172,75 -175,167 3,4 3,7 0,7l-575 0c2,0 2,-3 0,-7 2,-91 -76,-170 -168,-167 -92,-3 -171,75 -174,167 3,4 4,7 7,7zm167 -145c76,0 137,66 139,138 -2,79 -62,146 -139,146 -77,0 -137,-67 -138,-146 1,-72 62,-138 138,-138zm918 0c75,0 135,66 138,138 -3,79 -63,146 -138,146 -78,0 -139,-67 -138,-146 -1,-72 60,-138 138,-138zm-1296 -211l298 0 0 -306 -298 0 0 306zm364 0l306 0 0 -306 -306 0 0 306zm371 0l306 0 0 -306 -306 0 0 306zm364 0l343 0 -59 -306 -284 0 0 306zm-721 276c-39,4 -71,37 -72,73 1,41 33,75 72,73 39,2 70,-32 73,-73 -3,-36 -34,-69 -73,-73zm918 0c-41,4 -73,37 -73,73 0,41 32,75 73,73 37,2 68,-32 66,-73 2,-36 -29,-69 -66,-73z"/>
  <path class="fil1" d="M1792 717c-56,-8 -83,-50 -86,-109l0 -203c3,-36 28,-59 55,-86l227 -227c31,-31 85,-27 125,-24l649 0c55,-3 83,18 117,55l227 235 274 0c68,1 93,62 94,125l0 164c-1,62 -47,71 -94,70l-16 0c-4,-101 -73,-191 -180,-187 -107,-4 -185,85 -187,187l-837 0c-1,-102 -80,-191 -180,-187 -109,-4 -187,85 -188,187zm188 -156c78,0 143,72 140,149 3,84 -62,156 -140,156 -86,0 -152,-71 -149,-156 -3,-77 63,-149 149,-149zm1204 0c81,0 146,72 149,149 -3,84 -68,156 -149,156 -84,0 -149,-71 -148,-156 -1,-77 64,-149 148,-149zm-860 -203l0 -204 -266 0 -172 165c-4,4 -10,12 -8,23 -2,8 6,17 16,16l430 0zm102 0l516 0c15,1 36,-2 39,-16 -3,-11 -8,-20 -16,-23l-125 -141c-17,-19 -36,-23 -62,-24l-352 0 0 204zm-446 273c-46,4 -80,40 -78,79 -2,44 32,80 78,78 38,2 71,-34 70,-78 1,-39 -32,-75 -70,-79zm1204 0c-44,4 -77,40 -78,79 1,44 34,80 78,78 40,2 73,-34 71,-78 2,-39 -31,-75 -71,-79z"/>
  <path class="fil1" d="M682 191l0 -62 104 0c32,1 54,33 62,57l5 10 -62 19 -10 -19c-3,-5 -12,-7 -19,-5l-80 0z"/>
  <path class="fil1" d="M990 210l0 133c-38,-3 -84,-26 -85,-67 1,-41 42,-66 76,-66 4,0 6,1 9,0z"/>
  <path class="fil1" d="M382 457l-71 166c2,7 5,17 5,29 0,31 -26,59 -57,61 -34,-2 -61,-30 -62,-61 1,-31 21,-54 48,-62l76 -185 -219 0 62 -133 508 0c45,1 78,-9 109,-38l57 142 -104 271c-21,46 -66,70 -114,71l-152 0c6,-22 10,-44 9,-66 1,-47 -14,-93 -38,-133l271 0 43 -114 -171 0 -38 99 -119 0c-11,-17 -28,-32 -43,-47z"/>
  <path class="fil1" d="M359 561l28 -66c44,41 69,96 67,157 2,110 -88,207 -200,209 -114,-2 -203,-99 -204,-209 1,-113 91,-210 204,-209 9,-1 19,-1 29,0l-29 66c-76,0 -138,64 -138,143 0,74 61,140 138,142 76,-2 137,-67 138,-142 -1,-34 -13,-65 -33,-91z"/>
  <path class="fil1" d="M895 552c-24,26 -38,61 -38,100 0,74 60,140 138,142 75,-2 136,-67 138,-142 -2,-76 -59,-137 -133,-143l-24 -66c5,-1 11,-1 19,0 112,-1 201,95 200,209 1,111 -89,207 -200,209 -115,-2 -204,-100 -204,-209 0,-65 30,-127 81,-167l23 67z"/>
  <path class="fil1" d="M1009 590c26,10 44,33 43,62 1,31 -26,59 -57,61 -34,-2 -60,-30 -62,-61 2,-14 6,-25 15,-38l-152 -376 66 -28 147 380z"/>
 </g>
</svg>
